<svg id="Capa_1" data-name="Capa 1" xmlns="http://www.w3.org/2000/svg" viewBox="0 0 591.91 829"><defs><style>.cls-1{fill:#fff;}</style></defs><title>ESRB</title><polygon class="cls-1" points="581.46 5.88 6.25 5.88 6.25 823.18 585.68 823.18 585.68 5.88 581.46 5.88"/><rect x="21.39" y="21.25" width="549.23" height="786.92"/><rect class="cls-1" x="50.39" y="150.86" width="490.85" height="488.13"/><path d="M896.78,141H309.05V970H901V141Zm-4.26,821h-575V149h575Z" transform="translate(-309.05 -141)"/><path class="cls-1" d="M382,828.47c-.08.83-.13,1.7-.2,2.52-.43,8-3.18,14.1-12.63,14.1-14,0-14.84-8.53-14.84-20.2v-6.2c.34-11.2,1.27-19.41,14.84-19.41,7.54.08,11.79,3.85,12.38,11.3a17.62,17.62,0,0,1,.17,3.33h-8.34c-.35-2.79-.07-8.08-4.21-8.08-6.7,0-6.17,7.69-6.17,11.11v12c0,3.64.34,9.48,6.17,9.48,4.61,0,4.12-7.18,4.27-10Z" transform="translate(-309.05 -141)"/><path class="cls-1" d="M388.37,818.68c.36-11.2,1.27-19.4,14.84-19.4s14.46,8.2,14.83,19.4v6.21c0,11.66-.89,20.2-14.83,20.2s-14.84-8.53-14.84-20.2Zm8.7,10.29c0,3.64.29,9.48,6.14,9.48,6,0,6.1-6,6.1-10.2V817.13c0-3.5.19-11.3-6.1-11.3-6.66,0-6.14,7.69-6.14,11.11Z" transform="translate(-309.05 -141)"/><path class="cls-1" d="M446.1,800.36h8.52V844h-8.87l-6.66-15.54a153.39,153.39,0,0,1-6-17.35h-.12c.32,3.65.66,8,.93,12.51.24,4.34.41,8.65.41,12.18V844H425.8V800.36h8.8l6.57,15.92a138.4,138.4,0,0,1,6.09,17.31h.1c-.3-3.94-.61-8.22-.86-12.4s-.4-8.35-.4-12.28v-8.55Z" transform="translate(-309.05 -141)"/><polygon class="cls-1" points="150.7 659.36 178.99 659.36 178.99 665.76 169.13 665.76 169.13 703 160.6 703 160.6 665.76 150.7 665.76 150.7 659.36"/><polygon class="cls-1" points="183.82 703 183.82 659.36 207.74 659.36 207.74 665.76 192.33 665.76 192.33 676.77 206.53 676.77 206.53 683.18 192.33 683.18 192.33 696.62 207.74 696.62 207.74 703 183.82 703"/><path class="cls-1" d="M543.76,800.36h8.46V844h-8.86l-6.58-15.54a145.5,145.5,0,0,1-6.07-17.35h-.12c.33,3.65.66,8,.93,12.51.28,4.34.41,8.65.41,12.18V844h-8.49V800.36h8.77l6.62,15.92a141.83,141.83,0,0,1,6.08,17.31H545c-.31-3.94-.63-8.22-.84-12.4s-.43-8.35-.43-12.28v-8.55Z" transform="translate(-309.05 -141)"/><polygon class="cls-1" points="248.36 659.36 276.64 659.36 276.64 665.76 266.73 665.76 266.73 703 258.26 703 258.26 665.76 248.36 665.76 248.36 659.36"/><path class="cls-1" d="M614.32,825.18V844h-8.51V800.36h16.06c7.35,0,12.87,2.4,12.87,10.43,0,4.79-1.23,9.77-6.9,10.56v.14c5,.65,6.52,3.69,6.52,8,0,1.76-.22,12.45,1.8,13.75V844h-9.35c-1-2.79-.81-8.17-.88-11,0-2.67,0-6.33-2.92-7.17a27,27,0,0,0-7.2-.61h-1.49Zm0-6.38H621c2.8-.16,5-1.86,5-6.33,0-4.87-2.13-5.69-5.32-5.71h-6.3Z" transform="translate(-309.05 -141)"/><path class="cls-1" d="M639.39,844l10.88-43.64h11.4L672,844h-9.06l-2.25-11h-9.92l-2.27,11Zm12.66-17.45h7.27l-2.27-12.42c-.43-2-.57-4-.85-6-.08-1-.16-2-.32-3h-.08a24.28,24.28,0,0,0-.3,3c-.33,2-.52,4-.89,6Z" transform="translate(-309.05 -141)"/><polygon class="cls-1" points="364.55 659.36 392.85 659.36 392.85 665.76 382.97 665.76 382.97 703 374.45 703 374.45 665.76 364.55 665.76 364.55 659.36"/><polygon class="cls-1" points="397.72 703 397.72 659.36 421.59 659.36 421.59 665.76 406.23 665.76 406.23 676.77 420.35 676.77 420.35 683.18 406.23 683.18 406.23 696.62 421.59 696.62 421.59 703 397.72 703"/><path class="cls-1" d="M737.57,844V800.36h17.66a10.58,10.58,0,0,1,8.8,4.88c1.92,3,2.44,7.91,2.44,15.1,0,8.63,0,18.59-6.93,22.56a13.56,13.56,0,0,1-6.3,1.1Zm12.15-6.38c7.58,0,8.06-3.87,8.06-16.46,0-10.37-1.1-14.4-6.17-14.4H746v30.86Z" transform="translate(-309.05 -141)"/><path class="cls-1" d="M789.35,844V800.36H803c3.68,0,7.28.17,9.65,3.17,1.93,2.38,2.27,4.88,2.27,7.84,0,3.81-.91,7.52-5.45,9.16v.1c4.72.67,6.58,4.51,6.58,10.17a19.31,19.31,0,0,1-.62,5.34c-1.82,5.55-5.12,7.85-11.11,7.85h-15Zm10.24-6.38a14,14,0,0,0,5.13-.47c2.3-1,2.55-3.89,2.55-6,0-4.7-.94-6.72-6.17-6.72h-3.29v13.23h1.78ZM799.36,818c2.07,0,4.7.1,6.07-1.59.78-1.08.9-2.55.9-4.72,0-3.21-.72-4.83-4.61-4.93h-3.91V818Z" transform="translate(-309.05 -141)"/><path class="cls-1" d="M833.87,811.77a29.55,29.55,0,0,1,2,6.74H836a36.59,36.59,0,0,1,2.8-8.22l4-9.93h9.31l-12,25.09V844h-8.47V825.45l-11.8-25.09h9.25Z" transform="translate(-309.05 -141)"/><polygon class="cls-1" points="46.77 780.42 46.77 715.88 138.39 715.88 138.39 731 83.57 731 83.57 740.22 129.97 740.22 129.97 755.28 83.57 755.28 83.57 765.4 140.53 765.4 140.53 780.42 46.77 780.42"/><path class="cls-1" d="M541.7,875.67c-.58-2.19-2.63-3.6-5.31-4.39a33.53,33.53,0,0,0-9.51-1.19c-8.08,0-11.72,1.41-11.72,3.75,0,9.62,64.61,3.66,64.61,27.07,0,15-21.7,22.22-52.57,22.22-29.63,0-49-9.92-49.76-21.57h35.24c.77,2.34,3,4,6.11,5.08a31.19,31.19,0,0,0,10.46,1.65c9.2,0,15.33-1.72,15.33-4.74,0-9.77-64.66-3.08-64.66-27.7,0-13.74,20.62-20.63,48.7-20.63,31.19,0,45.4,9.18,48.07,20.45Z" transform="translate(-309.05 -141)"/><path class="cls-1" d="M647,899v22.46H610.12V856.89h53c37.43,0,49.78,5.88,49.78,18.42,0,7.45-5.77,13.67-18.86,15.8,11.82,2.52,19,4.07,19,17.07,0,8.41-.53,11.31,3.86,11.31v1.94H679.67c-.93-1.41-1.84-5.55-1.84-11.26,0-8.48-2.51-11.2-19.68-11.2Zm0-14.13H661.4c11.44,0,17.49-1.68,17.49-6.13S672.72,872,664.08,872H647Z" transform="translate(-309.05 -141)"/><path class="cls-1" d="M748.87,921.42V856.88h53.66c25.31,0,45.43,3.46,45.43,16.27,0,6.66-7.51,11.49-14.69,14C845.44,889,852,895,852,902c0,14.42-19.16,19.45-48.38,19.45H748.87Zm36.79-26.92v11.9h16.06c9.09,0,15.91-1.1,15.91-5.93,0-5.64-8.53-6-20.28-6Zm0-22.5v10.76H801c7.33,0,12.67-1.92,12.67-5.63,0-5-7.23-5.13-15-5.13Z" transform="translate(-309.05 -141)"/><polygon class="cls-1" points="38.85 50.73 70.54 50.73 70.54 60.19 50.5 60.19 50.5 85.51 69.37 85.51 69.37 94.97 50.5 94.97 50.5 122.34 70.54 122.34 70.54 131.74 38.85 131.74 38.85 50.73"/><polygon class="cls-1" points="72.15 50.73 83.8 50.73 95.92 115.19 96.12 115.19 108.26 50.73 119.9 50.73 102.77 131.74 89.28 131.74 72.15 50.73"/><polygon class="cls-1" points="128.54 50.73 160.23 50.73 160.23 60.19 140.18 60.19 140.18 85.51 159.06 85.51 159.06 94.97 140.18 94.97 140.18 122.34 160.23 122.34 160.23 131.74 128.54 131.74 128.54 50.73"/><path class="cls-1" d="M474.3,191.73h18c17,0,18.78,4.4,18.78,22.15,0,10.88-1.53,15.59-11.08,18.4v.23c7.92.78,10.6,4.68,10.6,12.31v17.64a54.32,54.32,0,0,0,.69,10.32h-11c-1.15-2-1.38-4-1.38-7.29V247.16c0-7.6-1.39-9.61-9.09-9.61h-4v35.23H474.3v-81Zm11.61,36.37h3c9.22,0,10.51-1.67,10.51-13.78s-.72-13.15-8-13.15h-5.6V228.1Z" transform="translate(-309.05 -141)"/><polygon class="cls-1" points="203.51 50.73 215.16 50.73 225.27 84.85 225.52 84.85 237.13 50.73 247.39 50.73 231.19 98.55 231.19 131.74 219.58 131.74 219.58 98.55 203.51 50.73"/><path class="cls-1" d="M559.62,212.39c0-11.3,3.82-21.28,19.64-21.28,15.06,0,19.85,7.5,19.85,20v41c0,11.3-3.86,21.32-19.85,21.32-14.85,0-19.64-7.53-19.64-20.08ZM571.27,254c0,7,3.25,10.68,8,10.68,4.91,0,8.2-3.7,8.2-10.68V211.48c0-7.95-2.81-11.65-8.2-11.65-5.2,0-8,3.7-8,11.65Z" transform="translate(-309.05 -141)"/><polygon class="cls-1" points="298.31 50.73 314.38 50.73 328.1 118.07 328.38 118.07 328.38 50.73 339.28 50.73 339.28 131.74 322.53 131.74 308.79 62.65 308.58 62.65 308.58 131.74 298.31 131.74 298.31 50.73"/><polygon class="cls-1" points="347.91 50.73 379.64 50.73 379.64 60.19 359.56 60.19 359.56 85.51 378.44 85.51 378.44 94.97 359.56 94.97 359.56 122.34 379.64 122.34 379.64 131.74 347.91 131.74 347.91 50.73"/><path class="cls-1" d="M732.23,207H732a40.72,40.72,0,0,1-9.09,8.39V204.9c2.69-1.91,8.93-9.57,10.5-13.17h9.78v81H732.22V207Z" transform="translate(-309.05 -141)"/><path class="cls-1" d="M760,211c0-14.55,3.54-19.94,17.37-19.94s17.37,5.39,17.37,19.94v42.43c0,14.56-3.53,20-17.37,20S760,268,760,253.46Zm11,44.25c0,5,0,10.08,6.4,10.08s6.43-5.05,6.43-10.08v-46c0-5,0-10.1-6.43-10.1s-6.4,5.05-6.4,10.1Z" transform="translate(-309.05 -141)"/><polygon class="cls-1" points="518.93 108.08 494.33 108.08 494.33 98.67 518.93 98.67 518.93 74.99 528.66 74.99 528.66 98.67 553.23 98.67 553.23 108.08 528.66 108.08 528.66 131.74 518.93 131.74 518.93 108.08"/><path d="M403.92,638.21c15.38-4.45,30.77-11,39.15-18.75V723h29.62V593.17H443.84c-10.89,9.21-22,14.43-39.92,19.94v25.1m-12-250.48L707,294.41l31.56,99L580.75,440.12l12.92,40.55,145.78-43.2,31.55,99L625.29,579.65l13.62,42.67,163-48.33,31.59,98.94L513.26,767.85,391.9,387.73m218,273.38c0-43-23.21-68.5-61.74-68.5-52,0-64.88,35.26-64.88,68.5,0,40.51,20.46,68.48,63.33,68.48s63.29-28,63.29-68.48m35.68,5.42H623.22v12.3h22.37v21.51h12.74V678.83h22.38v-12.3H658.33V645H645.59Z" transform="translate(-309.05 -141)"/><path d="M510.48,659.87c.24-43.41,17.57-53.51,37.42-53.43,22.24.12,34.89,16.64,34.72,54.68-.14,23.73-6.54,52.83-35.07,52.65-27.86-.08-37.23-22.21-37.07-53.9" transform="translate(-309.05 -141)"/><path d="M394.79,306.93h-8.51v24.55h-3.53V306.93h-8.58v-2.57h20.62Zm18.93,17.49h.12l7.62-20.06h6.37v27.12h-3.54V307.21h-.14l-9.35,24.27h-2.16l-9.35-24.27h-.13v24.27h-3.54V304.36H406Z" transform="translate(-309.05 -141)"/></svg>